#!OML:ASF H:\Terrain\Patient Classification 1\PLAYGROUND\JustinFriday\JustinFriday.ASF
:FULLY-SPECIFIED
:DEGREES
1306
root -15.1114 28.2954 -4.80684 333.583 -21.2456 -23.199
lowerback 41.2368 5.0405 16.4081
upperback 13.2192 12.737 3.53198
thorax -2.1538 6.61918 -8.61622
lowerneck 14.5417 -7.14198 18.5113
upperneck 24.1975 -6.8773 -4.00983
head 4.54045 -1.97917 -4.24761
rclavicle -3.18055e-015 -5.24792e-014
rhumerus -16.2703 -44.739 -8.99184
rradius 94.0532
rwrist -27.8853
rhand -38.6197 -9.42946
rfingers 7.12502
rthumb -11.6369 -39.0863
lclavicle -3.18055e-015 -5.24792e-014
lhumerus -40.7839 -45.1569 49.5838
lradius 101.525
lwrist -38.1092
lhand -10.3768 -2.31082
lfingers 7.12502
lthumb 15.6207 27.0785
rfemur -50.6838 -5.00709 18.7002
rtibia 107.514
rfoot 10.2065 0.535811
rtoes 7.76632
lfemur -47.9813 4.05453 9.15804
ltibia 96.2459
lfoot 7.14627 -10.2231
ltoes 0.610663
1307
root -15.1372 28.3118 -4.76258 331.597 -21.1715 -22.8766
lowerback 42.0525 4.80886 16.4916
upperback 13.7976 12.5806 3.77506
thorax -1.81584 6.59464 -8.34339
lowerneck 14.0091 -7.24918 18.3099
upperneck 25.6582 -7.17795 -4.14682
head 5.05612 -2.06317 -4.3184
rclavicle -2.78299e-014 3.18055e-015
rhumerus -15.0792 -44.9369 -9.69289
rradius 93.8111
rwrist -27.1755
rhand -38.5393 -9.81046
rfingers 7.12502
rthumb -11.5594 -39.4717
lclavicle -2.78299e-014 3.18055e-015
lhumerus -39.8579 -46.159 48.6683
lradius 100.065
lwrist -38.3163
lhand -9.85931 -3.12616
lfingers 7.12502
lthumb 16.1191 26.2235
rfemur -48.7981 -4.38144 18.5156
rtibia 107.674
rfoot 10.1464 1.13209
rtoes 5.98185
lfemur -45.951 4.58065 9.24582
ltibia 96.1603
lfoot 6.61548 -10.3765
ltoes 1.87235
1308
root -15.1557 28.3328 -4.75544 330.528 -19.9982 -21.4863
lowerback 42.2252 4.96065 15.2585
upperback 13.9676 12.2956 3.72394
thorax -1.99226 6.41099 -7.77732
lowerneck 16.0864 -7.31577 16.9463
upperneck 23.6834 -7.16184 -2.41652
head 4.25626 -2.20219 -3.41871
rclavicle 5.00937e-014 3.49861e-014
rhumerus -15.1053 -44.9756 -9.54749
rradius 94.1248
rwrist -26.8462
rhand -37.8103 -10.294
rfingers 7.12502
rthumb -10.8563 -39.9934
lclavicle 5.00937e-014 3.49861e-014
lhumerus -39.1247 -47.5848 47.9419
lradius 98.6415
lwrist -38.3428
lhand -10.6482 -4.96296
lfingers 7.12502
lthumb 15.3593 24.4466
rfemur -48.6318 -4.79532 16.6286
rtibia 108.09
rfoot 10.1293 2.12774
rtoes 4.35429
lfemur -45.6684 4.64557 7.42149
ltibia 96.0908
lfoot 6.1929 -9.73435
ltoes 1.96898
1309
root -15.1738 28.341 -4.7653 329.998 -19.3114 -21.0111
lowerback 42.4271 4.90018 14.8695
upperback 14.0108 12.1017 3.69899
thorax -2.11714 6.29711 -7.58739
lowerneck 13.4724 -7.18886 17.5893
upperneck 27.2127 -7.3976 -3.72355
head 5.66449 -2.11686 -4.13538
rclavicle -1.37559e-013 2.8625e-014
rhumerus -15.8895 -45.6021 -8.61345
rradius 94.7784
rwrist -27.3178
rhand -35.2175 -11.0242
rfingers 7.12502
rthumb -8.35468 -40.839
lclavicle -1.37559e-013 2.8625e-014
lhumerus -38.252 -48.9969 47.0242
lradius 97.2357
lwrist -38.4032
lhand -13.1767 -6.99344
lfingers 7.12502
lthumb 12.9228 22.5864
rfemur -48.816 -4.93609 16.0488
rtibia 108.359
rfoot 9.89974 2.43049
rtoes 1.73724
lfemur -45.8262 5.09975 6.83991
ltibia 95.9994
lfoot 5.81576 -9.87753
ltoes -0.213134
1310
root -15.1932 28.3387 -4.77637 329.618 -18.7121 -21.0013
lowerback 42.6296 4.63523 14.894
upperback 13.9645 11.835 3.67923
thorax -2.2671 6.15617 -7.56031
lowerneck 15.8269 -7.27393 16.443
upperneck 24.6806 -7.32786 -1.95552
head 4.63748 -2.24632 -3.22576
rclavicle 5.28767e-014 -4.92986e-014
rhumerus -17.4587 -43.4702 -7.66111
rradius 95.5636
rwrist -27.9475
rhand -35.1884 -11.4698
rfingers 7.12502
rthumb -8.32656 -41.2857
lclavicle 5.28767e-014 -4.92986e-014
lhumerus -37.507 -50.4946 46.2078
lradius 95.4253
lwrist -38.7223
lhand -17.1862 -8.62348
lfingers 7.12502
lthumb 9.05564 21.1621
rfemur -48.9672 -5.05803 15.9957
rtibia 108.629
rfoot 10.4976 2.67176
rtoes 2.40869
lfemur -46.2214 5.5807 6.78569
ltibia 96.0021
lfoot 5.75945 -10.1652
ltoes -1.14506
1311
root -15.2137 28.3288 -4.78107 329.351 -18.4015 -21.4305
lowerback 42.7118 4.28996 15.3947
upperback 14.029 11.6428 3.8182
thorax -2.17647 6.08731 -7.57549
lowerneck 15.3219 -7.33539 16.7842
upperneck 25.272 -7.35529 -2.82994
head 4.83733 -2.23155 -3.59292
rclavicle -6.40087e-014 -4.6118e-014
rhumerus -17.0128 -44.7471 -7.96031
rradius 95.8547
rwrist -27.4282
rhand -33.9506 -11.6264
rfingers 7.12502
rthumb -7.13192 -41.4862
lclavicle -6.40087e-014 -4.6118e-014
lhumerus -36.5518 -51.8373 45.4671
lradius 93.4397
lwrist -39.5268
lhand -21.1527 -10.346
lfingers 7.12502
lthumb 5.2269 19.5695
rfemur -49.1012 -4.90183 16.5071
rtibia 108.924
rfoot 10.487 2.68469
rtoes 2.38995
lfemur -46.6513 6.35025 7.35663
ltibia 96.0989
lfoot 5.92083 -10.5302
ltoes -0.649074
1312
root -15.238 28.3135 -4.79185 329.312 -18.2217 -22.0475
lowerback 42.5187 4.03371 15.9628
upperback 14.3669 11.5162 4.1411
thorax -1.70843 6.09033 -7.39624
lowerneck 14.0443 -7.20215 17.0527
upperneck 25.6604 -7.24849 -3.91481
head 5.06998 -2.18483 -4.04167
rclavicle 3.53837e-014 6.99722e-014
rhumerus -15.36 -46.7134 -8.67142
rradius 95.556
rwrist -27.6923
rhand -31.9268 -11.6034
rfingers 7.12502
rthumb -5.17809 -41.5201
lclavicle 3.53837e-014 6.99722e-014
lhumerus -34.7333 -52.5493 44.588
lradius 91.2145
lwrist -40.0276
lhand -25.1939 -12.9723
lfingers 7.12502
lthumb 1.3243 17.0033
rfemur -49.6608 -4.62378 17.3788
rtibia 109.218
rfoot 10.5869 2.49514
rtoes -3.00562
lfemur -47.3548 7.40881 8.198
ltibia 96.2231
lfoot 6.12274 -10.8452
ltoes -0.674774
1313
root -15.2676 28.2988 -4.803 329.282 -17.4279 -22.15
lowerback 42.205 3.89891 15.8346
upperback 14.6407 11.2397 4.33781
thorax -1.42443 5.98256 -7.00445
lowerneck 14.1083 -7.14317 15.7489
upperneck 25.713 -7.5696 -2.20437
head 5.17957 -2.36751 -3.27717
rclavicle -3.73715e-014 -4.6118e-014
rhumerus -13.7796 -48.3688 -9.46089
rradius 95.177
rwrist -27.6278
rhand -32.2248 -11.1739
rfingers 7.12502
rthumb -5.46576 -41.0834
lclavicle -3.73715e-014 -4.6118e-014
lhumerus -32.6316 -53.2918 43.5923
lradius 88.9234
lwrist -39.4939
lhand -29.5222 -16.0234
lfingers 7.12502
lthumb -2.85602 13.9372
rfemur -50.3542 -4.92664 17.3466
rtibia 109.653
rfoot 11.0148 2.56353
rtoes 1.85672
lfemur -48.3829 8.08465 8.11665
ltibia 96.362
lfoot 6.38319 -10.8053
ltoes -0.268678
1314
root -15.2901 28.2941 -4.80084 328.826 -16.3405 -21.6878
lowerback 42.4165 3.71213 15.3725
upperback 14.6351 10.8677 4.16837
thorax -1.61993 5.77929 -6.88429
lowerneck 14.6327 -7.19047 15.6234
upperneck 24.87 -7.56464 -1.83629
head 4.85469 -2.40693 -3.09623
rclavicle -4.77083e-014 7.63333e-014
rhumerus -15.0454 -47.0909 -8.86543
rradius 95.924
rwrist -27.3328
rhand -39.3587 -10.3413
rfingers 7.12502
rthumb -12.3495 -39.9566
lclavicle -4.77083e-014 7.63333e-014
lhumerus -31.0961 -54.5095 42.5427
lradius 87.253
lwrist -38.2188
lhand -33.3403 -18.1763
lfingers 7.12502
lthumb -6.54275 11.7026
rfemur -50.5044 -5.38236 16.3815
rtibia 110.11
rfoot 11.2548 3.07073
rtoes 3.81109
lfemur -48.9293 8.3964 7.25405
ltibia 96.5012
lfoot 6.35181 -10.7134
ltoes -0.55268
1315
root -15.3058 28.299 -4.79864 328.139 -15.5507 -21.3037
lowerback 42.645 3.51233 15.0946
upperback 14.8239 10.5345 4.07437
thorax -1.56849 5.62825 -6.75331
lowerneck 12.5277 -6.9327 16.0394
upperneck 27.4302 -7.58856 -2.55108
head 5.94812 -2.26741 -3.54424
rclavicle -1.19271e-014 3.18055e-014
rhumerus -13.7796 -46.7576 -10.0168
rradius 95.327
rwrist -25.7103
rhand -35.0577 -11.5391
rfingers 7.12502
rthumb -8.20048 -41.36
lclavicle -1.19271e-014 3.18055e-014
lhumerus -29.9181 -55.4459 41.7691
lradius 86.0713
lwrist -36.9479
lhand -36.0915 -19.632
lfingers 7.12502
lthumb -9.19812 10.1474
rfemur -50.4659 -5.41774 15.6914
rtibia 110.327
rfoot 11.428 3.61208
rtoes 2.06221
lfemur -48.947 8.84618 6.64666
ltibia 96.563
lfoot 6.12743 -10.7158
ltoes -2.13015
1316
root -15.3283 28.301 -4.80644 327.65 -14.8881 -21.2583
lowerback 42.3604 3.35793 14.9305
upperback 15.3269 10.2012 4.24526
thorax -1.03883 5.52117 -6.33377
lowerneck 14.4696 -6.83486 14.0976
upperneck 25.0432 -7.55881 -0.184003
head 5.05312 -2.44693 -2.34144
rclavicle -3.22031e-014 7.95139e-015
rhumerus -13.5252 -47.3179 -9.82758
rradius 95.389
rwrist -26.0636
rhand -36.9851 -11.0333
rfingers 7.12502
rthumb -10.0603 -40.7728
lclavicle -3.22031e-014 7.95139e-015
lhumerus -28.2573 -55.4943 40.7596
lradius 85.1345
lwrist -36.7612
lhand -36.168 -21.5376
lfingers 7.12502
lthumb -9.27192 8.2385
rfemur -50.6206 -5.4368 15.5142
rtibia 110.506
rfoot 11.7905 3.33928
rtoes 2.03769
lfemur -49.1884 9.4903 6.46837
ltibia 96.6096
lfoot 6.09223 -10.717
ltoes -2.2729
